<svg width="36" height="34" viewBox="0 0 36 34" fill="none" xmlns="http://www.w3.org/2000/svg">
<path d="M32.5 34L29.8121 28.8904L35.5811 29.1174L32.5 34ZM25.5 10.5L25.9 10.2L25.5 10.5ZM32.1775 29.529C31.9586 25.1897 30.6127 18.1502 25.1 10.8L25.9 10.2C31.5568 17.7424 32.9496 24.9858 33.1763 29.4786L32.1775 29.529ZM25.1 10.8C21.4584 5.94455 15.2288 3.47944 9.82546 2.23729C7.13493 1.61877 4.67448 1.30918 2.88654 1.15438C1.99302 1.07703 1.26861 1.03842 0.768814 1.01916C0.518944 1.00953 0.325303 1.00474 0.194828 1.00236C0.129597 1.00117 0.0801624 1.00058 0.0473942 1.00029C0.0310139 1.00014 0.0187992 1.00007 0.010857 1.00003C0.00688974 1.00001 0.00399057 1.00001 0.00217096 1C0.00126306 1 0.000626004 1 0.000259793 1C7.66875e-05 1 8.02292e-06 1 -8.35298e-05 1C-8.73445e-05 1 -1.868e-05 1 -1.8674e-05 0.5C-1.8668e-05 -3.90098e-07 0.000187326 -3.90096e-07 0.000458169 -3.90093e-07C0.000641275 -3.9009e-07 0.000984597 -3.90086e-07 0.00134699 -3.90082e-07C0.0020756 -3.90073e-07 0.00307887 3.42464e-06 0.00435679 7.23935e-06C0.00690501 1.10541e-05 0.0105442 2.24982e-05 0.0152554 4.15718e-05C0.0246739 8.35335e-05 0.0383915 0.000163642 0.0562977 0.00032386C0.0921025 0.000644295 0.144658 0.00127372 0.213093 0.00252494C0.349953 0.00502357 0.550354 0.00999794 0.80732 0.0199009C1.3212 0.039703 2.06163 0.0792233 2.9728 0.158115C4.79423 0.315815 7.30254 0.631225 10.0495 1.26271C15.5211 2.52056 22.0416 5.05545 25.9 10.2L25.1 10.8Z" fill="#363D4F"/>
</svg>
