<svg width="122" height="31" viewBox="0 0 122 31" fill="none" xmlns="http://www.w3.org/2000/svg">
<path d="M45.4006 30.1147C42.819 29.8136 40.7323 28.8523 39.0557 27.1924C36.9826 25.1409 35.8822 22.3749 35.8822 19.2143C35.8822 12.8614 40.4205 8.2039 46.5995 8.21403C48.2286 8.21693 49.8535 8.59987 51.288 9.32086C51.9718 9.66471 52.8467 10.2518 53.3093 10.6774C53.4846 10.8389 53.6448 10.9706 53.6649 10.9706C53.685 10.9706 53.7022 10.4328 53.7022 9.77619V8.58032H56.378V29.8483H53.7022V27.3864L53.458 27.5905C51.6636 29.089 50.0302 29.8187 47.8652 30.0901C47.3911 30.1495 45.8302 30.1654 45.4006 30.1147ZM47.8681 27.2995C51.1026 26.7522 53.3452 24.4495 53.9845 21.0183C54.1332 20.2227 54.1368 18.2211 53.9917 17.4372C53.8222 16.5229 53.5952 15.8214 53.2181 15.0469C52.1047 12.7608 50.143 11.3753 47.529 11.0278C46.6239 10.9069 45.3022 10.9844 44.4374 11.2081C41.9153 11.8603 39.9701 13.7019 39.0895 16.2724C38.7239 17.3402 38.6499 17.8353 38.6499 19.2143C38.6499 20.2748 38.6693 20.526 38.7914 21.0784C39.5241 24.3771 41.873 26.7305 45.0005 27.3017C45.6499 27.4197 47.1627 27.419 47.8681 27.2995ZM22.0624 30.0293C20.2738 29.8404 18.6217 29.2547 17.2088 28.3101C16.4186 27.7816 15.1831 26.5293 14.6444 25.7113C13.3284 23.7119 12.697 21.3129 12.7897 18.6627C12.8744 16.2536 13.5396 14.1963 14.8311 12.3504C15.0193 12.0804 15.5028 11.5273 15.9036 11.1205C17.3366 9.66978 19.062 8.75116 21.1416 8.33202C21.9791 8.16336 23.8532 8.09965 24.7245 8.20969C28.7385 8.71931 31.7454 11.4281 32.7783 15.4667C33.0297 16.4505 33.1432 17.288 33.187 18.4941L33.2251 19.5509H15.4898L15.5301 20.1793C15.7096 22.9728 17.3179 25.4753 19.7193 26.6972C20.8542 27.2749 21.9367 27.5261 23.298 27.5275C25.6325 27.5304 27.396 26.8036 28.8649 25.2357C29.232 24.8441 30.0602 23.7227 30.2032 23.4252C30.2211 23.3883 32.5377 24.9164 32.5377 24.9649C32.5377 25.1133 31.5888 26.386 31.0651 26.9383C29.1314 28.9797 26.7351 29.9859 23.6277 30.0604C23.0588 30.0749 22.3548 30.0604 22.0624 30.0293ZM30.4395 16.9008C29.9359 13.7055 27.7724 11.389 24.7224 10.7802C24.0802 10.6521 22.4202 10.6666 21.773 10.8063C20.2358 11.1386 18.9536 11.8089 17.8883 12.8383C16.7605 13.9285 16.0092 15.2973 15.6069 16.9927L15.5667 17.1614H30.4797L30.4395 16.9008ZM110.901 30.025C106.242 29.5877 102.782 26.4055 101.845 21.6966C101.208 18.4919 101.799 15.1504 103.442 12.6805C105.015 10.3133 107.257 8.84961 110.157 8.29221C110.976 8.13513 113.411 8.13585 114.185 8.29438C116.121 8.69035 117.721 9.53948 119.053 10.8787C120.975 12.8086 122 15.5384 122 18.7214V19.5509L113.166 19.5669L104.333 19.5821L104.349 20.0729C104.413 22.0035 105.318 24.0224 106.74 25.4029C107.842 26.4735 109.179 27.1511 110.738 27.4313C111.431 27.555 112.92 27.5543 113.618 27.4313C115.779 27.0447 117.345 25.9741 118.684 23.9645C118.875 23.6779 119.053 23.4498 119.081 23.4578C119.153 23.4766 121.226 24.8202 121.314 24.9056C121.407 24.9946 120.837 25.8611 120.17 26.6444C118.038 29.1411 114.649 30.3775 110.901 30.025ZM119.262 16.9927C119.262 16.9 119.209 16.6011 119.145 16.3282C118.413 13.2545 116.26 11.2081 113.273 10.7469C112.135 10.571 110.776 10.6919 109.624 11.0727C107.132 11.8958 105.206 13.977 104.544 16.5584C104.478 16.8168 104.424 17.0578 104.424 17.094C104.424 17.1418 106.558 17.1614 111.844 17.1614H119.264L119.263 16.9927H119.262ZM0 19.1832V8.51951H12.6503V11.0314L7.67811 11.0474L2.70663 11.0626L2.69082 20.4558L2.67574 29.8483H0V19.1832ZM61.0607 14.8927V0H63.7975V29.7868H61.0607V14.8927ZM68.4809 19.1521V8.51807H71.1567L71.1595 9.91301L71.1624 11.3072L71.388 11.0322C72.1314 10.1215 72.8979 9.48085 73.7656 9.04434C74.8 8.52313 75.7101 8.29583 76.9952 8.23357C78.4778 8.16336 79.6838 8.395 80.8576 8.97557C82.1024 9.59088 82.9982 10.4755 83.8422 11.924C83.8996 12.0239 83.9356 11.9964 84.1546 11.6721C85.3047 9.97454 87.0157 8.85178 89.1592 8.38849C90.0089 8.20462 91.8759 8.1858 92.6991 8.35229C94.2039 8.6585 95.3892 9.27454 96.3697 10.2619C97.4134 11.313 98.0541 12.5791 98.4478 14.365L98.6108 15.107L98.6309 22.4472L98.6503 29.7861H95.9703V23.2348C95.9703 19.1499 95.9466 16.4447 95.9071 16.0487C95.6571 13.5325 94.3648 11.7141 92.3449 11.035C91.5523 10.7719 90.7125 10.6845 89.8832 10.7788C87.2779 11.0633 85.5942 12.4836 85.0059 14.8927C84.8809 15.4037 84.878 15.5529 84.8572 22.6L84.8356 29.7861H82.1649V23.3601C82.1649 19.5191 82.1398 16.6228 82.1024 16.1609C81.8539 13.0714 80.1709 11.1132 77.4822 10.7839C75.0291 10.4827 72.4827 11.9262 71.5589 14.1427C71.1725 15.0671 71.1947 14.5879 71.1725 22.5399L71.1524 29.7868H68.4802V19.1528L68.4809 19.1521Z" fill="white" fill-opacity="0.43"/>
</svg>
