<?xml version="1.0" standalone="no"?>
<!DOCTYPE svg PUBLIC "-//W3C//DTD SVG 20010904//EN"
 "http://www.w3.org/TR/2001/REC-SVG-20010904/DTD/svg10.dtd">
<svg version="1.0" xmlns="http://www.w3.org/2000/svg"
 width="235.000000pt" height="235.000000pt" viewBox="0 0 235.000000 235.000000"
 preserveAspectRatio="xMidYMid meet">
<metadata>
Created by potrace 1.14, written by Peter Selinger 2001-2017
</metadata>
<g transform="translate(0.000000,235.000000) scale(0.100000,-0.100000)"
fill="#000000" stroke="none">
<path d="M680 2066 c-54 -27 -69 -41 -91 -80 -23 -40 -24 -49 -24 -308 -1
-147 -3 -269 -6 -272 -2 -2 -47 -32 -99 -67 -113 -75 -132 -91 -231 -189 -93
-92 -157 -183 -195 -275 -23 -58 -28 -85 -29 -160 0 -80 3 -96 30 -149 73
-144 249 -241 500 -275 86 -11 335 -7 430 8 125 20 139 22 250 51 622 160
1124 568 1128 915 1 92 -25 164 -83 228 -86 97 -221 161 -400 191 l-75 12 -1
111 c-1 61 -4 124 -8 139 -11 43 -52 92 -97 114 -37 20 -57 20 -507 20 -361
-1 -474 -4 -492 -14z m1145 -674 c42 -26 91 -79 110 -118 49 -103 4 -254 -110
-373 l-42 -44 0 277 c0 152 3 276 6 276 3 0 20 -8 36 -18z m-1261 -532 c0
-148 -4 -273 -7 -276 -10 -10 -84 45 -116 85 -80 102 -62 245 48 381 35 44 69
80 74 80 1 0 2 -121 1 -270z"/>
</g>
</svg>
