<svg width="35" height="33" viewBox="0 0 35 33" fill="none" xmlns="http://www.w3.org/2000/svg">
<path fill-rule="evenodd" clip-rule="evenodd" d="M9.77509 2.61957L11.1256 2.46739V33H7.11695V2.91304L9.77509 2.61957V2.61957ZM18.7141 17.0543C17.5351 17.0543 16.4419 17.0652 15.3486 17.0435C15.295 17.0435 15.2521 17.0435 15.2093 17.0435H15.1878C15.1557 17.0435 15.1235 17.0543 15.0914 17.0543H15.0806C15.0485 17.0652 15.027 17.0761 14.9949 17.0761V17.087H14.9842C14.9735 17.087 14.9627 17.087 14.952 17.0978C14.9199 17.1087 14.8877 17.1304 14.8663 17.1413V17.1522C14.8341 17.1739 14.802 17.1957 14.7805 17.2391C14.7591 17.2609 14.7484 17.2826 14.7377 17.3043C14.7377 17.3152 14.7377 17.3152 14.7269 17.3261V17.337C14.7162 17.3587 14.7055 17.3804 14.7055 17.413C14.6948 17.4348 14.6948 17.4565 14.6948 17.4783C14.6841 17.5109 14.6841 17.5543 14.6733 17.587V17.6304C14.6733 17.663 14.6733 17.6957 14.6733 17.7283C14.6841 18.4565 14.6733 19.1848 14.6626 19.9239C14.6626 20.2935 14.6519 20.663 14.6519 21.0326V21.5652C14.6519 21.75 14.6519 21.9348 14.6519 22.1087C14.6519 23.9783 13.9445 24.9891 12.1867 25.1739H12.176C12.1224 25.1848 12.0688 25.2283 12.0259 25.25V29.0761C12.0795 29.0761 12.1331 29.0761 12.176 29.0761H12.3904V29.087C12.5083 29.087 12.6369 29.087 12.7655 29.087V29.0761H12.8512C12.9048 29.0761 12.9477 29.0761 13.0013 29.0761V29.0652H13.0763C13.1299 29.0652 13.1835 29.0652 13.2264 29.0543H13.2371C13.2693 29.0543 13.3121 29.0435 13.3443 29.0435H13.3657C13.3872 29.0435 13.4193 29.0326 13.4407 29.0326H13.4729C13.4943 29.0326 13.5158 29.0217 13.5372 29.0217H13.5694C13.5908 29.0109 13.6122 29.0109 13.6337 29.0109V29H13.6551C13.6765 29 13.698 29 13.7194 29V28.9891H13.7409C13.7623 28.9891 13.7837 28.9891 13.8052 28.9783H13.8159C13.8588 28.9674 13.8909 28.9674 13.9338 28.9565H13.9552L13.9981 28.9457H14.0195L14.0624 28.9348V28.9239H14.0731C14.0838 28.9239 14.0946 28.9239 14.116 28.9239V28.913H14.1374C14.1481 28.913 14.1589 28.913 14.1696 28.9022H14.191L14.2232 28.8913H14.2446C14.2553 28.8804 14.2768 28.8804 14.2875 28.8804L14.3411 28.8696V28.8587C14.384 28.8478 14.4268 28.837 14.4804 28.8261C14.4911 28.8261 14.5019 28.8152 14.5126 28.8152H14.5233L14.5554 28.8043H14.5662L14.5983 28.7935V28.7826H14.609C14.6198 28.7826 14.6305 28.7826 14.6412 28.7826V28.7717H14.6519L14.6733 28.7609H14.6948L14.7162 28.75H14.7269L14.7591 28.7391H14.7698C14.8234 28.7174 14.8877 28.6957 14.9413 28.6739C14.9627 28.663 14.9842 28.6522 15.0056 28.6522H15.0163C15.0271 28.6413 15.0485 28.6304 15.0699 28.6196L15.0914 28.6087H15.1021L15.1342 28.5978L15.1557 28.587H15.1664L15.1985 28.5761V28.5652H15.22V28.5543H15.2307H15.2414V28.5435H15.2521L15.2843 28.5326L15.3057 28.5217H15.3164C15.37 28.4891 15.4236 28.4674 15.4772 28.4457L15.4987 28.4348C15.5094 28.4239 15.5094 28.4239 15.5201 28.413L15.5522 28.4022L15.5844 28.3804H15.5951L15.6058 28.3696H15.6166L15.638 28.3587V28.3478H15.6487H15.6594V28.337H15.6701L15.6916 28.3261L15.713 28.3152L15.7345 28.3043C15.788 28.2717 15.8416 28.2391 15.8845 28.2174C15.906 28.2065 15.9167 28.1957 15.9274 28.1848L15.9595 28.163H15.9703L15.9917 28.1522L16.0024 28.1413V28.1304H16.0131H16.0239V28.1196H16.0346L16.0667 28.0978L16.0989 28.0761H16.1096C16.1203 28.0652 16.131 28.0543 16.1418 28.0543V28.0435C16.1525 28.0435 16.1632 28.0326 16.1739 28.0217H16.1846L16.2168 28C16.2489 27.9783 16.2704 27.9565 16.3025 27.9348L16.3132 27.9239V27.913H16.324C16.3347 27.913 16.3454 27.9022 16.3561 27.8913L16.3668 27.8804C16.3883 27.8696 16.399 27.8587 16.4204 27.8478V27.837H16.4311V27.8261H16.4419L16.4633 27.8043L16.4847 27.7935L16.4955 27.7826C16.5062 27.7717 16.5169 27.7609 16.5276 27.75L16.5383 27.7391H16.549L16.5598 27.7283C16.6134 27.6848 16.6669 27.6304 16.7205 27.587L16.7313 27.5761L16.742 27.5652H16.7527V27.5543V27.5435H16.7634H16.7741V27.5326H16.7849V27.5217L16.7956 27.5109H16.8063V27.5H16.817V27.4891H16.8277C16.9028 27.413 16.9778 27.337 17.0421 27.2609V27.25H17.0528L17.0635 27.2391L17.0742 27.2283L17.085 27.2174C17.1064 27.1957 17.1171 27.1739 17.1386 27.163V27.1522L17.1493 27.1413L17.16 27.1304L17.1707 27.1196V27.1087C17.1921 27.0978 17.2029 27.0761 17.2243 27.0543L17.235 27.0435V27.0326L17.2457 27.0217C17.2886 26.9783 17.3208 26.9348 17.3529 26.9022V26.8913C17.3636 26.8804 17.3744 26.8696 17.3851 26.8478C17.3958 26.837 17.4065 26.8261 17.4172 26.8152V26.8043L17.4279 26.7935L17.4494 26.7609H17.4601V26.75V26.7391C17.4708 26.7283 17.4815 26.7174 17.4923 26.7065L17.5137 26.6739V26.663L17.5244 26.6522C17.5351 26.6413 17.5459 26.6304 17.5459 26.6196H17.5566C17.578 26.5761 17.5994 26.5435 17.6316 26.5L17.653 26.4674V26.4565L17.6637 26.4457V26.4348C17.6745 26.4239 17.6852 26.413 17.6852 26.4022H17.6959L17.7066 26.3804V26.3696L17.7173 26.3587L17.7281 26.337L17.7388 26.3152V26.3043H17.7495L17.7602 26.2717H17.7709L17.7817 26.25L17.8031 26.2065L17.8138 26.1848C17.8352 26.1522 17.846 26.1196 17.8674 26.087L17.8781 26.0652L17.8888 26.0435L17.8996 26.0217V26.0109H17.9103L17.921 26V25.9891L17.9317 25.9674L17.9424 25.9457V25.9348L17.9531 25.9239V25.913L17.9639 25.8913H17.9746V25.8696V25.8587H17.9853L17.996 25.837L18.0067 25.8152L18.0175 25.7826C18.0389 25.7391 18.0603 25.6957 18.0818 25.6413L18.1032 25.587V25.5761L18.1139 25.5543L18.1354 25.5217L18.1461 25.4891L18.1568 25.4565L18.1675 25.4348V25.4239L18.1782 25.3913H18.1889V25.3587C18.1997 25.3478 18.1997 25.337 18.2104 25.3261C18.2211 25.2935 18.2318 25.2609 18.2425 25.2283V25.2174C18.2533 25.1848 18.2747 25.1522 18.2854 25.1087C18.2854 25.0978 18.2961 25.087 18.2961 25.0761V25.0652L18.3068 25.0326L18.3176 25V24.9783H18.3283V24.9565V24.9457H18.339L18.3497 24.913V24.9022L18.3604 24.8696C18.3604 24.8478 18.3712 24.837 18.3712 24.8261V24.8152L18.3819 24.7826V24.7717C18.3926 24.75 18.4033 24.7283 18.4033 24.6957V24.6848L18.4248 24.6413V24.6304C18.4248 24.6196 18.4248 24.5978 18.4355 24.587L18.4462 24.5326L18.4569 24.4783L18.4676 24.4239V24.413H18.4783V24.3696H18.4891C18.4998 24.2826 18.5212 24.2065 18.5319 24.1304V24.1196L18.5427 24.0652V24.0543C18.5534 24.0435 18.5534 24.0217 18.5641 24V23.9783L18.5748 23.9239C18.5855 23.8478 18.5962 23.7717 18.607 23.6957V23.6848L18.6177 23.6087V23.5978H18.6284C18.6284 23.5761 18.6284 23.5435 18.6391 23.5217V23.5109C18.6391 23.4783 18.6391 23.4457 18.6498 23.4239V23.413C18.6606 23.337 18.6606 23.2717 18.6713 23.2065C18.682 23.163 18.682 23.1196 18.682 23.0761V23.0652C18.6927 23.0217 18.6927 22.9783 18.6927 22.9457V22.9348H18.7034C18.7034 22.8261 18.7141 22.7065 18.7249 22.5978V22.5761C18.7249 22.5 18.7356 22.4348 18.7356 22.3587C18.7463 22.2391 18.7463 22.1196 18.7463 22V21.9674C18.7892 20.337 18.6177 18.6957 18.7141 17.0543V17.0543ZM33.9984 0C33.9984 1.42391 33.9984 2.78261 33.9984 4.1413C33.9984 4.17391 33.9984 4.20652 33.9984 4.22826V4.25C33.9877 4.27174 33.977 4.29348 33.977 4.30435H33.9663V4.31522C33.9663 4.31522 33.9556 4.32609 33.9556 4.33696C33.9556 4.33696 33.9448 4.33696 33.9448 4.34783C33.9341 4.3587 33.9127 4.36957 33.8913 4.38043C33.8591 4.40217 33.8162 4.41304 33.7626 4.42391H33.7519C33.7412 4.42391 33.7305 4.42391 33.7198 4.42391C32.5622 4.55435 31.4153 4.68478 30.2685 4.81522L29.6361 4.88043L29.5182 4.8913L29.0573 4.94565L28.9501 4.95652H28.9394L28.8322 4.96739L28.4785 5.01087L28.3713 5.02174H28.3606L28.2534 5.03261L28.1355 5.04348L27.8997 5.07609L27.7925 5.08696H27.7818L27.6746 5.09783H27.6639L27.5567 5.1087L27.3209 5.1413L27.203 5.15217L27.0959 5.16304H27.0851L26.7421 5.19565H26.7314L26.6242 5.21739L26.2813 5.25H26.2705L26.1634 5.26087H26.1526L25.6918 5.31522L25.4345 5.34783L25.2201 5.36957L24.8772 5.40217H24.8664L24.6306 5.43478L24.2769 5.46739C23.5588 5.54348 22.8407 5.61956 22.0904 5.70652C22.1118 5.29348 22.1333 4.90217 22.144 4.51087H22.1547V4.48913C22.1547 4.41304 22.1547 4.33696 22.1654 4.27174V4.25C22.1654 4.18478 22.1654 4.1087 22.1762 4.03261V4.01087L22.1869 3.83696V3.82609L22.1976 3.6413V3.63043L22.2083 3.46739V3.43478L22.219 3.27174H22.2297V3.23913L22.2405 3.07609V3.05435L22.2512 2.8913V2.88043C22.2619 2.76087 22.2619 2.6413 22.2726 2.53261V2.52174L22.2833 2.3587L22.3048 2.19565V2.18478L22.3155 2.03261V2.02174L22.3262 1.86957V1.84783L22.3369 1.69565V1.68478L22.3691 1.3587C24.0197 1.18478 25.6489 0.978261 27.2888 0.782609L27.5996 0.73913H27.6103L27.814 0.717391H27.8247C27.9962 0.695652 28.1677 0.673913 28.3499 0.652174L28.5214 0.630435L29.1002 0.565217L29.4324 0.521739L30.0863 0.445652L30.5257 0.391304L30.9652 0.347826C31.9512 0.228261 32.948 0.119565 33.9556 0H33.9984V0ZM14.609 11.75C14.6198 12.5109 14.6305 13.2826 14.6305 14.0435C14.6305 14.5652 14.6305 15.087 14.6305 15.587H18.6713C18.6713 15.1413 18.682 14.6957 18.682 14.2609C18.6927 13.9022 18.6927 13.5543 18.6927 13.2065V13.163H18.7034C18.7034 12.8478 18.7034 12.5435 18.7034 12.2391H18.6927V11.8152C18.6927 11.6739 18.6927 11.5435 18.6927 11.4022H18.682V11.2283C18.682 11.163 18.682 11.0978 18.682 11.0435H18.6713V10.8804C18.6713 10.8043 18.6713 10.7391 18.6606 10.6739V10.6087L18.6498 10.4891C18.6498 10.4674 18.6498 10.4457 18.6498 10.4239V10.3913C18.6498 10.3696 18.6391 10.337 18.6391 10.3152V10.25C18.6284 10.2283 18.6284 10.2174 18.6284 10.1957H18.6177V10.1413C18.6177 10.1196 18.6177 10.0978 18.6177 10.0761H18.607V10.0543C18.607 10.0217 18.607 10 18.5962 9.97826V9.96739C18.5962 9.94565 18.5855 9.92391 18.5855 9.90217V9.8913C18.5855 9.88044 18.5748 9.8587 18.5748 9.83696V9.82609L18.5641 9.78261V9.76087L18.5534 9.73913H18.5427V9.70652V9.68478H18.5319V9.65217L18.5212 9.61957V9.59783L18.5105 9.56522V9.55435L18.4998 9.52174V9.5C18.4891 9.45652 18.4676 9.42391 18.4569 9.38043V9.36957L18.4462 9.33696L18.4355 9.30435V9.29348L18.4248 9.26087V9.25L18.414 9.23913H18.4033V9.21739V9.19565H18.3926V9.18478V9.16304H18.3819V9.15217V9.13043H18.3712V9.1087L18.3604 9.09783V9.07609L18.3497 9.05435L18.3283 9.02174V9H18.3176V8.98913C18.2961 8.93478 18.2747 8.86956 18.2425 8.81522V8.80435H18.2318V8.79348L18.2211 8.78261V8.76087L18.2104 8.75V8.73913L18.1997 8.72826H18.1889V8.70652H18.1782V8.68478V8.67391H18.1675V8.66304V8.65217H18.1568V8.6413L18.1461 8.61957L18.1354 8.59783V8.58696L18.1246 8.57609H18.1139V8.56522L18.1032 8.54348C18.0925 8.51087 18.071 8.48913 18.0603 8.45652C18.0496 8.44565 18.0389 8.43478 18.0282 8.42391V8.41304L18.0067 8.38043V8.36957L17.996 8.3587L17.9853 8.34783H17.9746V8.33696L17.9639 8.31522V8.30435H17.9531V8.29348L17.9424 8.28261V8.27174H17.9317V8.26087L17.921 8.23913L17.9103 8.22826H17.8996V8.21739L17.8888 8.20652L17.8781 8.19565V8.18478V8.17391H17.8674V8.16304L17.8567 8.15217L17.846 8.1413V8.13043L17.8138 8.09783C17.7924 8.06522 17.7709 8.03261 17.7388 8L17.7281 7.98913V7.97826H17.7173V7.96739C17.7066 7.95652 17.6959 7.93478 17.6745 7.92391L17.6637 7.91304V7.90217L17.653 7.8913L17.6423 7.88043V7.86957H17.6316V7.8587L17.6102 7.84783L17.5994 7.83696V7.82609L17.5887 7.81522L17.578 7.80435L17.5673 7.79348V7.78261H17.5566H17.5459V7.77174H17.5351V7.76087C17.5137 7.73913 17.4923 7.71739 17.4708 7.69565L17.4601 7.67391L17.4494 7.66304L17.4172 7.63043L17.4065 7.61957H17.3958V7.6087L17.3851 7.59783L17.3744 7.58696L17.3636 7.57609L17.3529 7.56522C17.3315 7.54348 17.31 7.53261 17.2993 7.51087H17.2886V7.5H17.2779V7.48913H17.2672H17.2565V7.47826H17.2457V7.46739H17.235V7.45652L17.2243 7.44565L17.2136 7.43478L17.2029 7.42391C17.1814 7.41304 17.1707 7.40217 17.16 7.38043H17.1493L17.1386 7.36957L17.1278 7.3587L17.1064 7.34783C17.085 7.32609 17.0635 7.30435 17.0314 7.28261C17.0207 7.27174 16.9992 7.26087 16.9885 7.25V7.23913C16.9671 7.22826 16.9563 7.21739 16.9349 7.20652L16.9242 7.19565L16.9028 7.18478H16.892V7.17391V7.16304H16.8813L16.8706 7.15217L16.8492 7.1413L16.8384 7.13043H16.8277L16.817 7.11957H16.8063V7.1087H16.7956V7.09783L16.7849 7.08696L16.7634 7.07609H16.7527V7.06522H16.742L16.7098 7.04348V7.03261L16.6777 7.01087H16.667C16.6455 7 16.6241 6.97826 16.6026 6.96739C16.5812 6.95652 16.5705 6.94565 16.5598 6.93478C16.5383 6.92391 16.5169 6.91304 16.4955 6.90217L16.474 6.8913H16.4633V6.88043L16.4526 6.86957L16.4311 6.8587L16.4097 6.84783L16.3883 6.83696H16.3776V6.82609H16.3668L16.3454 6.81522V6.80435L16.324 6.79348H16.3132L16.3025 6.78261H16.2918L16.2811 6.77174L16.2597 6.76087H16.2489L16.2382 6.75H16.2275V6.73913L16.2061 6.72826L16.1846 6.71739H16.1739C16.131 6.69565 16.0774 6.66304 16.0346 6.6413H16.0239L16.0131 6.63043H16.0024L15.981 6.61957L15.9595 6.6087H15.9488L15.9274 6.59783H15.9167V6.58696L15.8952 6.57609H15.8845L15.8738 6.56522H15.8631L15.8416 6.55435H15.8202V6.54348H15.8095H15.7988V6.53261H15.7773V6.52174H15.7452H15.7345V6.51087L15.7237 6.5H15.713L15.6916 6.48913L15.6594 6.47826H15.6487C15.6166 6.46739 15.5844 6.45652 15.5522 6.43478L15.5201 6.42391H15.5094L15.4772 6.41304L15.4451 6.40217H15.4343L15.4129 6.3913H15.3915V6.38043H15.37H15.3593V6.36957L15.3272 6.3587H15.3057L15.2843 6.34783H15.2736L15.2414 6.33696H15.2307L15.1985 6.32609L15.1557 6.31522C15.1128 6.29348 15.0592 6.28261 15.0163 6.27174H15.0056L14.9627 6.26087H14.9413L14.9091 6.25H14.8877V6.23913H14.8556H14.8341V6.22826L14.7912 6.21739H14.7698L14.7269 6.20652H14.7162L14.6626 6.19565H14.6519L14.5983 6.18478H14.5876C14.5662 6.17391 14.5447 6.17391 14.5233 6.17391H14.5126C14.4911 6.16304 14.4697 6.16304 14.4375 6.16304H14.4268V6.15217C14.4054 6.15217 14.384 6.15217 14.3518 6.1413H14.3304C14.2982 6.1413 14.2768 6.1413 14.2553 6.13043H14.2232C14.2017 6.13043 14.1696 6.11957 14.1481 6.11957H14.1267C14.0302 6.1087 13.9445 6.09783 13.8588 6.09783H13.7944V6.08696C13.7409 6.08696 13.6765 6.08696 13.6122 6.08696H13.5586V6.07609C13.3443 6.07609 13.1406 6.07609 12.9263 6.08696C12.8512 6.08696 12.7762 6.08696 12.7012 6.08696V6.09783H12.6476C12.594 6.09783 12.5404 6.09783 12.4868 6.1087H12.4547C12.4332 6.1087 12.4011 6.1087 12.3689 6.11957C12.2832 6.11957 12.1545 6.21739 12.0688 6.32609C12.0259 6.38043 12.0045 6.43478 11.9938 6.47826V6.61957V6.67391C11.9831 6.90217 11.9831 7.1413 11.9831 7.38043V7.46739C11.9723 8.21739 11.9831 8.98913 11.9831 9.76087C12.1438 9.77174 12.2939 9.78261 12.4225 9.78261C12.5297 9.79348 12.6369 9.80435 12.7441 9.80435C14.0946 9.86957 14.5983 10.3913 14.609 11.75V11.75ZM0.0214366 16.1413H3.56919C3.56919 15.0652 3.55847 14.0435 3.57991 13.0326C3.62278 10.9457 4.20157 10.2935 6.21661 10.0435C6.23805 10.0435 6.24877 10.0326 6.2702 10.0217C6.30236 10 6.32379 9.97826 6.36667 9.94565V6.53261C6.35595 6.53261 6.33451 6.53261 6.32379 6.53261H6.30236C6.25948 6.52174 6.21661 6.52174 6.17374 6.52174H6.09871V6.51087C5.92722 6.5 5.76644 6.5 5.59495 6.51087V6.52174H5.53064C5.48777 6.52174 5.43418 6.52174 5.3913 6.53261H5.38058C5.34843 6.53261 5.31627 6.53261 5.29484 6.54348H5.26268C5.24125 6.54348 5.21981 6.54348 5.18766 6.55435H5.16622C5.14478 6.55435 5.11263 6.56522 5.09119 6.56522H5.08047C5.0376 6.57609 4.98401 6.58696 4.94113 6.58696V6.59783H4.93042C4.9197 6.59783 4.89826 6.59783 4.87682 6.6087H4.86611L4.82323 6.61957H4.8018C4.79108 6.61957 4.78036 6.61956 4.75892 6.63043H4.7482L4.71605 6.6413H4.69461L4.65174 6.65217H4.64102C4.58743 6.67391 4.54456 6.68478 4.50168 6.69565H4.49097C4.46953 6.70652 4.43737 6.70652 4.40522 6.71739L4.37306 6.72826H4.36235L4.33019 6.73913V6.75H4.31947L4.28732 6.76087H4.2766L4.24445 6.77174L4.21229 6.78261H4.20157L4.16942 6.79348H4.1587C4.12654 6.81522 4.09439 6.82609 4.06223 6.83696H4.05152C4.03008 6.84783 4.01936 6.84783 3.99792 6.8587H3.98721L3.95505 6.86957L3.93361 6.88043V6.8913H3.9229L3.89074 6.90217L3.8693 6.91304H3.85859L3.82643 6.92391C3.80499 6.93478 3.78356 6.94565 3.76212 6.94565C3.69781 6.97826 3.6335 7.01087 3.56919 7.04348L3.53704 7.05435L3.5156 7.06522L3.49416 7.07609H3.48345L3.46201 7.08696L3.44057 7.09783V7.1087H3.42985H3.41914V7.11957H3.40842L3.38698 7.13043L3.36555 7.1413H3.35483L3.34411 7.15217H3.33339L3.31195 7.16304C3.25836 7.19565 3.20477 7.22826 3.15118 7.25V7.26087H3.14046L3.12974 7.27174H3.11902C3.09759 7.28261 3.08687 7.29348 3.06543 7.30435H3.05471L3.03328 7.31522V7.32609L3.00112 7.34783H2.9904L2.96897 7.3587C2.94753 7.36957 2.92609 7.38043 2.91538 7.40217H2.90466C2.8725 7.42391 2.84035 7.43478 2.80819 7.45652V7.46739L2.77604 7.48913H2.76532C2.7546 7.5 2.74388 7.5 2.73317 7.51087C2.72245 7.52174 2.71173 7.53261 2.70101 7.53261V7.54348H2.69029L2.65814 7.56522L2.62598 7.58696H2.61526L2.60455 7.59783L2.57239 7.63043H2.56167C2.55095 7.6413 2.54024 7.6413 2.52952 7.65217C2.47593 7.69565 2.43305 7.72826 2.37946 7.76087V7.77174C2.35803 7.78261 2.34731 7.79348 2.32587 7.80435L2.31515 7.81522L2.27228 7.8587H2.26156L2.25084 7.86957C2.22941 7.88043 2.21869 7.8913 2.20797 7.91304L2.19725 7.92391H2.18653C2.1651 7.93478 2.14366 7.95652 2.13294 7.96739V7.97826C2.10079 8 2.06863 8.02174 2.03648 8.05435C1.9936 8.08696 1.95073 8.13043 1.90786 8.17391H1.89714L1.88642 8.18478V8.19565H1.8757V8.20652L1.86498 8.21739L1.85427 8.22826H1.84355V8.23913H1.83283L1.82211 8.25C1.76852 8.31522 1.70421 8.36957 1.65062 8.42391V8.43478L1.6399 8.44565L1.62918 8.45652H1.61846L1.60774 8.46739L1.59703 8.47826V8.48913C1.56487 8.51087 1.54343 8.54348 1.51128 8.57609V8.58696L1.50056 8.59783L1.48984 8.6087L1.47912 8.61957C1.43625 8.67391 1.39338 8.72826 1.35051 8.77174V8.78261L1.33979 8.79348L1.29691 8.83696L1.2862 8.8587L1.26476 8.8913H1.25404L1.24332 8.90217C1.2326 8.92391 1.22189 8.93478 1.21117 8.95652C1.18973 8.96739 1.17901 8.98913 1.16829 9V9.01087C1.14686 9.04348 1.1147 9.07609 1.09327 9.1087L1.07183 9.1413V9.15217C1.06111 9.16304 1.05039 9.17391 1.05039 9.18478H1.03967L1.01824 9.21739V9.22826L0.996801 9.26087C0.986083 9.27174 0.975365 9.28261 0.975365 9.29348V9.30435H0.964647C0.964647 9.31522 0.953928 9.32609 0.94321 9.33696L0.921773 9.38043L0.911055 9.40217H0.900337C0.900337 9.41304 0.889619 9.42391 0.8789 9.43478V9.44565C0.857464 9.48913 0.825309 9.52174 0.803872 9.56522L0.793154 9.58696V9.59783L0.782436 9.6087V9.61957H0.771717C0.760999 9.6413 0.750281 9.66304 0.739562 9.68478L0.728844 9.70652L0.718126 9.72826V9.73913L0.707408 9.75V9.76087L0.696689 9.78261H0.685971C0.653816 9.85869 0.621661 9.92391 0.589506 9.98913L0.578788 10.0109V10.0217C0.56807 10.0326 0.557351 10.0543 0.557351 10.0761H0.546633V10.0978V10.1087H0.535915L0.525196 10.1304L0.514478 10.163V10.1739L0.50376 10.1957L0.493042 10.2283V10.2391H0.482323V10.25V10.2609H0.471605C0.471605 10.2826 0.460887 10.3043 0.450168 10.3261C0.450168 10.337 0.43945 10.3478 0.43945 10.3587C0.428732 10.3804 0.428732 10.4022 0.418014 10.4239L0.407295 10.4565V10.4674H0.396577L0.385859 10.5L0.37514 10.5326V10.5435L0.364422 10.5761L0.353704 10.6087V10.6196L0.342985 10.6522L0.332267 10.6957C0.321549 10.7283 0.310831 10.75 0.300112 10.7826C0.289394 10.8152 0.289394 10.837 0.278676 10.8696L0.267957 10.913V10.9239C0.246521 10.9891 0.225084 11.0543 0.214366 11.1196V11.1304L0.203648 11.1848L0.192929 11.2391C0.182211 11.2609 0.182211 11.2826 0.171493 11.3043C0.160774 11.4022 0.139338 11.4891 0.12862 11.5761V11.587C0.117901 11.6087 0.117901 11.6304 0.117901 11.663H0.107183C0.107183 11.7283 0.0964647 11.7826 0.0857464 11.837V11.8478C0.0857464 11.8804 0.0750281 11.913 0.0750281 11.9457V11.9565C0.0750281 11.9891 0.0643098 12.0217 0.0643098 12.0543V12.0652C0.0535915 12.163 0.0428732 12.25 0.0428732 12.3478V12.3696H0.0321549C0.0321549 12.4239 0.0321549 12.4891 0.0214366 12.5543V12.5652C0.0214366 12.6522 0.0107183 12.75 0.0107183 12.8478V12.8587C-0.0214366 13.9457 0.0750281 15.0435 0.0214366 16.1413V16.1413ZM6.37739 25.6196C6.37739 25.5761 6.37739 25.5435 6.37739 25.5217V25.4891C6.37739 25.4565 6.36667 25.4239 6.36667 25.4022V25.3913C6.35595 25.3587 6.34523 25.3261 6.33451 25.3043V25.2935C6.33451 25.2935 6.33451 25.2826 6.32379 25.2717V25.2609C6.31308 25.2391 6.29164 25.2065 6.2702 25.1848C6.2702 25.1848 6.2702 25.1739 6.25948 25.1739C6.25948 25.163 6.24877 25.1522 6.23805 25.1413C6.21661 25.1304 6.20589 25.1196 6.18446 25.1087C6.17374 25.0978 6.1523 25.087 6.14158 25.087H6.13086V25.0761C6.12015 25.0761 6.09871 25.0652 6.07727 25.0543C6.05584 25.0543 6.04512 25.0435 6.02368 25.0435C6.00225 25.0326 5.98081 25.0326 5.97009 25.0326H5.95937C5.92722 25.0217 5.89506 25.0217 5.86291 25.0217H5.84147C5.82003 25.0109 5.7986 25.0109 5.77716 25.0109C4.19085 24.9457 3.71925 24.4348 3.68709 22.8152C3.66566 21.587 3.68709 20.3587 3.66566 19.1304C3.66566 19.0978 3.66566 19.0761 3.66566 19.0543V18.9783C3.66566 18.9348 3.66566 18.8804 3.65494 18.8261V18.7065C3.65494 18.663 3.64422 18.6196 3.64422 18.5761V18.5217C3.62278 18.1957 3.59063 17.8804 3.56919 17.5543H0.0321549C0.0321549 18.7283 0 19.8696 0 21.0109V21.087C0 21.413 0 21.7283 0.0107183 22.0435V22.1087C0.0107183 22.2391 0.0214366 22.3587 0.0214366 22.4891V22.5C0.0321549 22.5761 0.0321549 22.663 0.0321549 22.7391H0.0428732V22.7826C0.0428732 22.8587 0.0428732 22.9239 0.0535915 23V23.0217V23.1196C0.0535915 23.1413 0.0643098 23.163 0.0643098 23.1957V23.2174C0.0643098 23.25 0.0643098 23.2935 0.0750281 23.3261V23.3804C0.0750281 23.4022 0.0750281 23.4348 0.0857464 23.4565V23.5109C0.0857464 23.5435 0.0964647 23.5761 0.0964647 23.5978V23.6304C0.107183 23.663 0.107183 23.6957 0.107183 23.7283H0.117901V23.7391C0.117901 23.8043 0.12862 23.8587 0.139338 23.9239V23.9348L0.150056 24V24.0217L0.160774 24.0761V24.0978L0.171493 24.1522V24.1739L0.182211 24.2283H0.192929V24.25V24.3043H0.203648V24.3261L0.214366 24.3804V24.3913C0.225084 24.4239 0.225084 24.4674 0.235803 24.5109C0.246521 24.5326 0.246521 24.5543 0.246521 24.5761H0.257239V24.6196H0.267957V24.6304L0.278676 24.6739V24.6848L0.289394 24.7283V24.7391L0.300112 24.7717V24.7935L0.310831 24.8261V24.8478L0.321549 24.8804H0.332267V24.8913C0.332267 24.913 0.332267 24.9239 0.342985 24.9457C0.353704 25 0.37514 25.0652 0.385859 25.1196L0.396577 25.163H0.407295C0.407295 25.1739 0.407295 25.1848 0.407295 25.1957H0.418014V25.2065L0.428732 25.2391V25.25L0.43945 25.2717V25.2935L0.450168 25.3152V25.3261L0.460887 25.3478V25.3696L0.471605 25.3913H0.482323V25.4022L0.493042 25.4348V25.4457C0.493042 25.4565 0.50376 25.4674 0.50376 25.4783C0.525196 25.5543 0.557351 25.6196 0.578788 25.6848C0.589506 25.7065 0.589506 25.7283 0.600225 25.75L0.610943 25.7717H0.621661V25.7826L0.632379 25.8152L0.643098 25.837V25.8478L0.653816 25.8587V25.8804L0.664534 25.9022L0.675253 25.9239V25.9348L0.685971 25.9457H0.696689V25.9674L0.707408 25.9891L0.718126 26.0109V26.0217L0.728844 26.0435C0.750281 26.0978 0.771717 26.1413 0.793154 26.1848L0.803872 26.2065L0.81459 26.2283L0.836027 26.2609L0.846745 26.2826C0.846745 26.2935 0.857464 26.3043 0.868182 26.3261V26.337L0.8789 26.3478V26.3587L0.889619 26.3696V26.3804L0.900337 26.4022H0.911055L0.921773 26.4239L0.932492 26.4457L0.94321 26.4565V26.4783L0.953928 26.4891V26.5L0.964647 26.5109H0.975365V26.5217L0.986083 26.5435C0.996802 26.5652 1.00752 26.587 1.01824 26.5978V26.6087C1.02896 26.6304 1.03967 26.6413 1.06111 26.663L1.08255 26.7065C1.09327 26.7174 1.09327 26.7283 1.10398 26.7391V26.75L1.12542 26.7717V26.7826H1.13614V26.7935L1.14686 26.8043L1.15758 26.8152V26.8261L1.16829 26.8478L1.17901 26.8587V26.8696L1.20045 26.8804V26.8913H1.21117V26.9022L1.22189 26.9239L1.2326 26.9348V26.9457C1.24332 26.9565 1.25404 26.9674 1.25404 26.9783H1.26476C1.26476 26.9891 1.27548 27 1.2862 27.0109C1.29691 27.0326 1.30763 27.0435 1.31835 27.0652C1.33979 27.0761 1.35051 27.0978 1.36122 27.1087V27.1196C1.37194 27.1304 1.38266 27.1522 1.39338 27.163L1.4041 27.1739H1.41482V27.1848H1.42553V27.1957C1.43625 27.2065 1.43625 27.2174 1.44697 27.2283L1.45769 27.2391V27.25H1.46841H1.47912V27.2609V27.2717H1.48984L1.51128 27.3043L1.522 27.3152V27.3261H1.53272V27.337L1.54343 27.3478H1.55415C1.55415 27.3587 1.56487 27.3696 1.57559 27.3804L1.58631 27.3913V27.4022H1.59703V27.413L1.60774 27.4239C1.6399 27.4565 1.66134 27.4783 1.68277 27.5109H1.69349L1.70421 27.5217L1.71493 27.5326L1.72565 27.5435V27.5543L1.73636 27.5652L1.74708 27.5761L1.7578 27.587H1.76852V27.5978H1.77924V27.6087H1.78996V27.6196H1.80067V27.6304L1.81139 27.6413L1.82211 27.6522L1.83283 27.663H1.84355V27.6739H1.85427V27.6848H1.86498V27.6957L1.8757 27.7065L1.88642 27.7174L1.89714 27.7283H1.90786V27.7391H1.91857L1.92929 27.75L1.94001 27.7609L1.95073 27.7826C2.01504 27.837 2.07935 27.8913 2.13294 27.9457H2.14366L2.15438 27.9565C2.1651 27.9674 2.18653 27.9783 2.19725 28H2.20797L2.21869 28.0109L2.22941 28.0217C2.24012 28.0326 2.25084 28.0326 2.26156 28.0435H2.27228V28.0543H2.283V28.0652L2.29372 28.0761L2.30443 28.087H2.31515L2.32587 28.0978L2.33659 28.1087H2.34731L2.37946 28.1304V28.1413L2.39018 28.1522C2.41162 28.163 2.42233 28.1739 2.44377 28.1848C2.47593 28.2065 2.50808 28.2283 2.52952 28.25C2.54024 28.2609 2.56167 28.2717 2.57239 28.2717V28.2826L2.58311 28.2935H2.59383L2.60455 28.3043L2.62598 28.3152H2.6367L2.64742 28.3261L2.65814 28.337H2.66886V28.3478H2.67957V28.3587L2.70101 28.3696H2.71173C2.72245 28.3804 2.73317 28.3804 2.74388 28.3913L2.76532 28.4022H2.77604V28.413H2.78676L2.79748 28.4348H2.80819C2.81891 28.4457 2.82963 28.4457 2.84035 28.4565H2.85107C2.89394 28.4891 2.94753 28.5109 3.00112 28.5435L3.02256 28.5543V28.5652H3.044V28.5761L3.06543 28.587H3.07615L3.08687 28.5978H3.09759L3.10831 28.6087H3.12974V28.6196H3.14046H3.15118V28.6304H3.1619L3.18333 28.6522L3.21549 28.663L3.23693 28.6739L3.25836 28.6848L3.29052 28.6957L3.31195 28.7065C3.36554 28.7391 3.41914 28.7609 3.47273 28.7826C3.49416 28.7935 3.5156 28.8043 3.53704 28.8152L3.55847 28.8261H3.56919L3.59063 28.837H3.60135V28.8478H3.62278H3.6335V28.8587H3.65494H3.66566V28.8696L3.68709 28.8804L3.71925 28.8913H3.72997L3.7514 28.9022L3.78356 28.913L3.81571 28.9239V28.9348C3.83715 28.9348 3.85859 28.9457 3.88002 28.9565C3.94433 28.9783 3.99792 29 4.06223 29.0217H4.07295L4.09439 29.0326H4.10511L4.13726 29.0435H4.14798L4.16942 29.0543H4.18014C4.19085 29.0652 4.20157 29.0652 4.21229 29.0652H4.22301V29.0761C4.23373 29.0761 4.24444 29.0761 4.25516 29.0761H4.2766V29.087L4.29804 29.0978H4.30875L4.34091 29.1087H4.35163L4.38378 29.1196C4.44809 29.1413 4.50168 29.1522 4.56599 29.1739H4.57671L4.61959 29.1848L4.67318 29.1957H4.6839L4.71605 29.2065H4.73749V29.2174H4.76964H4.79108V29.2283C4.8018 29.2283 4.81251 29.2283 4.83395 29.2391H4.85539L4.88754 29.25H4.89826L4.94113 29.2609H4.95185C4.97329 29.2609 4.99473 29.2717 5.00544 29.2717H5.01616C5.05904 29.2826 5.10191 29.2935 5.13406 29.2935H5.14478L5.20909 29.3152H5.21981L5.28412 29.3261H5.30556L5.35915 29.337H5.38058L5.44489 29.3478H5.46633V29.3587H5.53064H5.54136V29.3696C5.57351 29.3696 5.59495 29.3696 5.61639 29.3804H5.62711C5.65926 29.3804 5.69141 29.3804 5.72357 29.3913C5.77716 29.3913 5.82003 29.4022 5.85219 29.4022H5.87363C5.89506 29.4022 5.9165 29.4022 5.93794 29.4022H5.98081C6.01296 29.4022 6.04512 29.3913 6.07727 29.3913C6.09871 29.3804 6.10943 29.3804 6.12015 29.3804H6.13086C6.14158 29.3696 6.1523 29.3696 6.16302 29.3587C6.17374 29.3587 6.17374 29.3587 6.18446 29.3478C6.20589 29.3478 6.21661 29.337 6.22733 29.3261C6.24877 29.3043 6.2702 29.2826 6.29164 29.2609C6.30236 29.2391 6.31308 29.2174 6.32379 29.1957C6.33451 29.1848 6.33451 29.1848 6.33451 29.1739C6.34523 29.163 6.34523 29.1413 6.34523 29.1304C6.35595 29.1196 6.35595 29.0978 6.36667 29.0761V29.0652C6.36667 29.0435 6.37739 29.0217 6.37739 28.9891C6.37739 28.9348 6.37739 28.8804 6.37739 28.8152C6.35595 27.75 6.35595 26.6848 6.37739 25.6196V25.6196ZM27.2781 28.1957C26.3027 28.087 25.7882 27.1304 25.7561 26.1957C25.7132 25.0543 25.6918 23.9239 25.6703 22.7935C25.6703 22.7391 25.6703 22.6957 25.6703 22.6522C25.6489 22.5326 25.606 22.4565 25.5095 22.4239H25.4988C25.4452 22.4022 25.3809 22.3913 25.2952 22.4022C24.2019 22.4348 23.0979 22.4565 22.0047 22.4674C21.9618 22.4674 21.9189 22.4674 21.8868 22.4783H21.876C21.8332 22.4891 21.7903 22.5 21.7581 22.5217C21.7474 22.5326 21.7367 22.5543 21.726 22.5652C21.6938 22.5978 21.6831 22.6522 21.6724 22.7065V22.7174C21.6617 22.7609 21.6617 22.8043 21.6617 22.8478C21.6831 23.2826 21.6831 23.7174 21.6831 24.1522V24.3587C21.6831 24.5652 21.6938 24.7609 21.6938 24.9674V24.9891V25.0109C21.7153 25.413 21.7153 25.8043 21.7153 26.2065H21.726V26.2826C21.726 26.4348 21.726 26.5978 21.7367 26.7609V26.7935C21.7367 26.8696 21.7367 26.9348 21.7474 27.0109V27.1087C21.7474 27.163 21.7474 27.2174 21.7581 27.2717V27.337C21.7689 27.4348 21.7689 27.5326 21.7796 27.6196V27.663L21.7903 27.7391H21.801V27.8043V27.8587H21.8117V27.913V27.9565H21.8225V28.0217L21.8332 28.0761V28.1196L21.8439 28.1848V28.2174C21.8546 28.2391 21.8546 28.2609 21.8546 28.2935H21.8653V28.3261C21.8653 28.3587 21.876 28.3913 21.8868 28.4348V28.4457L21.8975 28.4891V28.5217L21.9082 28.5543V28.587L21.9189 28.6196V28.6413L21.9296 28.6848H21.9403V28.7065L21.9511 28.75V28.7609C21.9618 28.8043 21.9725 28.8587 21.9832 28.9022V28.913L21.9939 28.9565L22.0047 28.9891H22.0154V29V29.0326H22.0261V29.0543L22.0368 29.0761V29.0978L22.0475 29.1196V29.1304L22.0583 29.163V29.1739L22.069 29.2065H22.0797V29.2174V29.25H22.0904L22.1011 29.2826V29.2935C22.1118 29.3152 22.1118 29.337 22.1226 29.3587V29.3696L22.1333 29.4022L22.144 29.4239H22.1547V29.4348L22.1654 29.4674V29.4891H22.1762V29.5L22.1869 29.5326L22.1976 29.5543V29.5652L22.2083 29.587V29.5978L22.219 29.6196H22.2297V29.6304L22.2405 29.6522V29.663L22.2512 29.6848V29.6957C22.2619 29.7065 22.2619 29.7283 22.2726 29.75C22.3048 29.8043 22.3262 29.8587 22.3476 29.913L22.3691 29.9348L22.3798 29.9674V29.9783H22.3905V29.9891V30H22.4012V30.0109L22.412 30.0217V30.0435L22.4227 30.0543V30.0652L22.4334 30.0761H22.4441V30.087V30.1087H22.4548L22.4655 30.1304L22.4763 30.1522C22.4977 30.1848 22.5084 30.2174 22.5299 30.2391V30.25C22.5406 30.2609 22.5513 30.2826 22.562 30.3043L22.5834 30.3478H22.5942L22.6156 30.3804V30.3913L22.6263 30.413L22.637 30.4239V30.4348L22.6478 30.4457H22.6585V30.4565H22.6692V30.4674L22.6799 30.4891L22.6906 30.5V30.5109L22.7014 30.5217L22.7121 30.5326V30.5435L22.7335 30.5652V30.5761H22.7442V30.587L22.7657 30.6196L22.7871 30.6522H22.7978C22.8085 30.6739 22.8193 30.6848 22.83 30.7065C22.8407 30.7174 22.8514 30.7391 22.8728 30.75V30.7717H22.8836V30.7826H22.8943C22.905 30.7935 22.905 30.8043 22.9157 30.8152L22.9264 30.837L22.9372 30.8478H22.9479V30.8587H22.9586V30.8696L22.98 30.8913V30.9022L22.9907 30.913L23.0015 30.9239L23.0122 30.9348H23.0229V30.9457L23.0443 30.9674L23.0551 30.9891L23.0658 31L23.0765 31.0109H23.0872C23.1194 31.0543 23.1515 31.087 23.1837 31.1304L23.1944 31.1413L23.2051 31.1522L23.2158 31.163L23.2265 31.1739H23.2373L23.248 31.1848V31.1957L23.2587 31.2065L23.2694 31.2174L23.2801 31.2283L23.2909 31.2391H23.3016L23.3123 31.25L23.323 31.2609V31.2717C23.3552 31.2935 23.3873 31.3261 23.4195 31.3587L23.4302 31.3696L23.4409 31.3804H23.4516L23.4623 31.3913L23.4731 31.4022V31.413C23.4945 31.4239 23.5159 31.4457 23.5481 31.4674V31.4783H23.5588V31.4891C23.5802 31.5 23.591 31.5109 23.6017 31.5217H23.6124L23.6231 31.5326L23.6553 31.5652H23.666V31.5761H23.6767L23.6874 31.587L23.6982 31.5978H23.7089V31.6087H23.7196V31.6196H23.7303H23.741V31.6304L23.7625 31.6522H23.7732L23.7839 31.663L23.8161 31.6848H23.8268V31.6957H23.8375V31.7065L23.8696 31.7283H23.8804L23.9232 31.7609L23.9661 31.7935L23.9983 31.8152L24.0197 31.8261H24.0304V31.837H24.0411L24.0626 31.8587L24.0947 31.8804H24.1054L24.1162 31.8913H24.1269V31.9022H24.1376L24.159 31.913H24.1698V31.9239L24.2019 31.9457L24.2233 31.9565H24.2341L24.2662 31.9783C24.3091 32 24.3412 32.0217 24.3841 32.0435L24.4056 32.0543V32.0652L24.427 32.0761L24.4484 32.087H24.4592L24.4699 32.0978H24.4806L24.502 32.1087L24.5235 32.1196H24.5342V32.1304H24.5449H24.5556V32.1413L24.5771 32.1522L24.5985 32.163H24.6092L24.6199 32.1739H24.6306L24.6521 32.1848C24.7057 32.2174 24.7593 32.2391 24.8129 32.2609H24.8236L24.845 32.2717L24.8772 32.2935H24.8879L24.9093 32.3043L24.9629 32.3261H24.9736L24.9951 32.337L25.0272 32.3478H25.0379V32.3587L25.0594 32.3696L25.0915 32.3804H25.1022C25.1773 32.413 25.2523 32.4348 25.3381 32.4674L25.3702 32.4783L25.4131 32.4891C25.5095 32.5217 25.606 32.5543 25.7025 32.587L25.7453 32.5978H25.7561L25.7882 32.6087H25.7989L25.8418 32.6196L25.8847 32.6304H25.8954L25.9383 32.6413V32.6522L25.9919 32.663C26.024 32.663 26.0562 32.6739 26.0883 32.6848L26.1526 32.6957L26.2062 32.7065L26.2598 32.7174H26.2705V32.7283L26.3241 32.7391H26.3349L26.3777 32.75H26.3884L26.442 32.7609C26.5171 32.7717 26.5814 32.7826 26.6457 32.8043L26.7207 32.8152L26.7957 32.8261L26.8708 32.837L26.9458 32.8478C27.0315 32.8696 27.1173 32.8804 27.203 32.8913H27.2138L27.2995 32.9022C27.3638 32.913 27.4281 32.9239 27.4924 32.9239C27.4924 31.5978 27.5031 30.3152 27.4924 29.0435V28.9457C27.4924 28.7717 27.4924 28.5978 27.4924 28.4348C27.4924 28.4239 27.4817 28.4022 27.4817 28.3913C27.471 28.3696 27.4603 28.3478 27.4496 28.3261H27.4388C27.4174 28.2826 27.3745 28.25 27.3424 28.2283C27.3317 28.2174 27.3317 28.2174 27.3209 28.2174V28.2065C27.2995 28.2065 27.2888 28.2065 27.2781 28.1957V28.1957ZM25.681 18.7391C25.7346 16.4022 25.7882 14.0761 25.8525 11.7391C25.874 10.9457 25.9061 10.1413 25.9276 9.34783V9.33696L25.9383 8.97826V8.94565L25.9597 8.58696V8.56522L25.9704 8.19565V8.16304C25.9704 8.03261 25.9811 7.90217 25.9811 7.77174V7.73913C25.9919 7.34783 25.9811 6.94565 25.9811 6.53261C25.7989 6.53261 25.6596 6.53261 25.531 6.54348C25.4345 6.54348 25.338 6.54348 25.2416 6.55435H25.2309L25.0058 6.56522H24.9951L24.7807 6.57609L24.5556 6.59783C23.8589 6.63043 23.1515 6.67391 22.4548 6.68478C22.4334 6.68478 22.4012 6.69565 22.3798 6.69565H22.3584C22.3369 6.69565 22.3155 6.70652 22.2833 6.70652C22.219 6.71739 22.1762 6.73913 22.1333 6.77174C22.1333 6.77174 22.1333 6.78261 22.1226 6.78261C22.1118 6.79348 22.1011 6.80435 22.0904 6.82609C22.069 6.84783 22.0475 6.88043 22.0368 6.92391C22.0261 6.94565 22.0261 6.95652 22.0261 6.97826C22.0154 7 22.0154 7.03261 22.0154 7.06522C22.0047 7.09783 22.0047 7.13043 22.0047 7.16304C21.9939 7.73913 21.9725 8.32609 21.9511 8.90217C21.9404 9.05435 21.9404 9.20652 21.9296 9.3587L21.8868 10.6087V10.6196L21.876 10.9565V10.9674L21.8653 11.3043H21.8546L21.8439 11.6413V11.6522L21.8332 11.9891V12.0109L21.8225 12.337V12.3587L21.8117 12.6848V12.6957L21.801 13.0217V13.0435L21.7796 13.3696V13.4022L21.7689 13.7174V13.75L21.7581 14.0652V14.0978L21.7474 14.413V14.4565L21.7367 14.7609V14.7935L21.726 15.1087V15.1413H21.7153L21.7045 15.4565V15.4891L21.6938 15.8152V15.8478L21.6831 16.163V16.1848L21.6724 16.5109V16.5326L21.6617 16.8696V16.8804L21.651 17.2174V17.2391H21.6402L21.6295 17.5761V17.587L21.6188 18.0435C21.6081 18.4239 21.6188 18.8043 21.6188 19.2609L23.3123 19.2065C24.0197 19.1848 24.7164 19.1522 25.4238 19.1304C25.4345 19.1304 25.4452 19.1304 25.4667 19.1304H25.4774C25.4988 19.1196 25.5095 19.1196 25.531 19.1196C25.5846 19.0978 25.6167 19.0652 25.6382 19.0217C25.6489 19.0217 25.6489 19.0109 25.6489 19C25.6596 18.9891 25.6596 18.9783 25.6703 18.9674V18.9565C25.681 18.9022 25.681 18.8152 25.681 18.7391V18.7391ZM34.9952 24.1848C34.9952 23.5652 34.9952 22.9457 34.9952 22.3261H34.9845V22.0761C34.9845 21.5435 34.9845 21 34.9738 20.4674V20.3696C34.9738 20.1522 34.9738 19.9348 34.9738 19.7174H34.9631V19.2717V18.9457H34.9524V18.4783L34.9416 18.1957V17.837C34.9309 17.7065 34.9309 17.5652 34.9309 17.4239V17.3043L34.9202 17.0543C34.9202 17 34.9202 16.9457 34.9095 16.8913V16.8478C34.9095 16.75 34.9095 16.663 34.8988 16.5761V16.5217C34.8988 16.4348 34.8881 16.3478 34.8881 16.2609C34.8881 16.2065 34.8773 16.1522 34.8773 16.0978V16.0543C34.8773 16.0109 34.8666 15.9674 34.8666 15.9239V15.8804C34.8559 15.837 34.8559 15.7935 34.8559 15.75H34.8452V15.7174C34.8452 15.6739 34.8452 15.6304 34.8345 15.587V15.5761C34.8345 15.5326 34.8345 15.4891 34.8237 15.4457C34.8237 15.413 34.8237 15.3804 34.813 15.3478V15.3261L34.8023 15.2391V15.2065L34.7916 15.1413V15.1087L34.7809 15.0435H34.7701V15.0109V14.9348H34.7594V14.913L34.7487 14.837V14.8261C34.738 14.7717 34.738 14.7174 34.7273 14.663L34.7166 14.6087V14.587L34.7058 14.5435H34.6951V14.5109V14.4674H34.6844V14.4348V14.4022H34.6737V14.3696L34.663 14.337V14.3043L34.6523 14.2717V14.2391L34.6415 14.1957H34.6308V14.1739V14.1304H34.6201V14.1196L34.6094 14.0652L34.5987 14L34.5879 13.9565V13.9457L34.5772 13.9022L34.5665 13.8478H34.5558L34.5451 13.8043V13.7935L34.5344 13.75C34.5236 13.6848 34.5022 13.6304 34.4808 13.5652C34.47 13.5109 34.4486 13.4565 34.4379 13.4022L34.4272 13.3696C34.4057 13.3043 34.3843 13.25 34.3629 13.1848C34.3414 13.1522 34.3307 13.1196 34.32 13.087C34.3093 13.0652 34.3093 13.0435 34.2985 13.0217C34.2878 12.9891 34.2771 12.9565 34.2557 12.9348V12.9239C34.1914 12.7609 34.1163 12.6087 34.0306 12.4565C33.9877 12.3804 33.9448 12.3152 33.902 12.2391L33.8805 12.2065V12.1957C33.8484 12.1522 33.8162 12.0978 33.7841 12.0543V12.0435C33.7626 12.0217 33.7412 11.9891 33.7198 11.9565C33.709 11.9457 33.6876 11.9239 33.6769 11.913C33.6447 11.8696 33.6126 11.8261 33.5804 11.7826L33.5697 11.7717V11.7609C33.5483 11.7391 33.5268 11.7174 33.5054 11.6957V11.6848C33.3982 11.5761 33.291 11.4674 33.1731 11.3587L33.1624 11.3478C33.1088 11.3043 33.0659 11.2609 33.0123 11.2174C32.9909 11.2065 32.9802 11.1957 32.9695 11.1848H32.9588V11.1739L32.948 11.163C32.8944 11.1196 32.8301 11.0761 32.7765 11.0435C32.7444 11.0217 32.7122 11 32.6694 10.9783L32.6372 10.9457C32.6158 10.9348 32.5943 10.9239 32.5729 10.913C32.53 10.8913 32.4979 10.8696 32.455 10.8478L32.4336 10.837L32.4121 10.8261H32.4014V10.8152C32.3585 10.7935 32.3049 10.7717 32.2621 10.75H32.2514V10.7391L32.2299 10.7283C32.1978 10.7174 32.1763 10.7065 32.1442 10.6957L32.1227 10.6848H32.112C32.0799 10.663 32.037 10.6522 31.9941 10.6304C31.962 10.6196 31.9298 10.6087 31.8869 10.5978V10.587L31.8548 10.5761L31.8226 10.5652H31.8119C31.7905 10.5543 31.769 10.5543 31.7476 10.5435C31.7262 10.5326 31.7154 10.5326 31.7047 10.5326C31.6726 10.5217 31.6511 10.5109 31.619 10.5H31.6083C31.5975 10.5 31.5868 10.4891 31.5761 10.4891C31.5547 10.4891 31.5439 10.4783 31.5332 10.4783H31.5225C31.4582 10.4565 31.3939 10.4457 31.3296 10.4239H31.3189C31.3081 10.4239 31.2867 10.413 31.2653 10.413H31.2545C31.2438 10.4022 31.2224 10.4022 31.2117 10.4022H31.201C31.1259 10.3804 31.0616 10.3696 30.9973 10.3587H30.9866C30.9544 10.3587 30.933 10.3478 30.9116 10.3478H30.8901C30.8687 10.3478 30.8365 10.337 30.8044 10.337C30.7615 10.337 30.7186 10.3261 30.6758 10.3261H30.6543C30.59 10.3152 30.5364 10.3152 30.4721 10.3152H30.4614C30.3864 10.3043 30.3006 10.3043 30.2149 10.3043V10.3152H30.1398C30.0755 10.3152 30.0219 10.3152 29.9576 10.3261H29.9255C29.8612 10.3261 29.7861 10.337 29.7111 10.3478H29.7004C29.679 10.3587 29.6468 10.3587 29.6254 10.3587H29.6146C29.5611 10.3696 29.5182 10.3804 29.4753 10.3913H29.4646C29.4432 10.3913 29.4324 10.3913 29.411 10.4022H29.4003C29.3788 10.4022 29.3681 10.413 29.3467 10.413C29.3253 10.413 29.3145 10.4239 29.2931 10.4239H29.2824C29.2181 10.4457 29.1538 10.4565 29.0895 10.4783C29.068 10.4783 29.0573 10.4891 29.0466 10.4891H29.0359L29.0037 10.5H28.993C28.9716 10.5109 28.9394 10.5217 28.918 10.5326C28.8858 10.5326 28.8644 10.5435 28.8429 10.5543H28.8322L28.8001 10.5652L28.7679 10.5761C28.7143 10.5978 28.6714 10.6087 28.6286 10.6304C28.5857 10.6522 28.5428 10.663 28.4999 10.6848C28.4785 10.6848 28.4571 10.6957 28.4356 10.7065C28.4035 10.7174 28.382 10.7283 28.3499 10.75C28.2963 10.7717 28.2427 10.7935 28.1891 10.8261L28.157 10.837L28.1355 10.8478L28.1141 10.8587H28.1034L28.0819 10.8696L28.0605 10.8804V10.8913L28.0069 10.913C27.964 10.9348 27.9212 10.9565 27.8676 10.9891L27.8461 11C27.814 11.0217 27.7818 11.0326 27.7604 11.0543C27.7175 11.0761 27.6746 11.0978 27.6318 11.1304C27.6103 11.1413 27.5889 11.1522 27.5675 11.163C27.5353 11.1848 27.5031 11.2065 27.471 11.2283C27.4388 11.25 27.4174 11.2609 27.396 11.2826H27.3852L27.3531 11.3043L27.3209 11.337H27.3102L27.2781 11.3587C27.2352 11.3913 27.1923 11.413 27.1494 11.4457C27.1066 11.4783 27.0637 11.5109 27.0101 11.5543L26.9672 11.587C26.9458 11.6087 26.9244 11.6196 26.9029 11.6304C26.86 11.663 26.8279 11.7174 26.7957 11.7717C26.785 11.7935 26.785 11.8043 26.7743 11.8261V11.837C26.7636 11.8587 26.7636 11.8804 26.7636 11.8913V12.1413V12.3804C26.7529 13.337 26.7529 14.2935 26.7529 15.25C26.7957 15.2391 26.8493 15.2283 26.8922 15.2174L26.9458 15.2065C26.9887 15.1957 27.0315 15.1848 27.0637 15.1848C27.471 15.087 27.8569 14.9891 28.2427 14.9565C28.8751 14.9022 29.486 15.0326 29.8505 15.6522C30.2256 16.2609 30.4614 16.9348 30.4614 17.6522C30.4828 20.3913 30.4828 23.1304 30.4614 25.8587C30.4614 27.0652 29.829 27.8696 28.725 28.2609H28.7143C28.7036 28.2717 28.6929 28.2717 28.6929 28.2717H28.6822C28.6178 28.3152 28.5428 28.3913 28.5107 28.4674C28.5107 28.4783 28.4999 28.5 28.4999 28.5109C28.4999 29.6087 28.5107 30.7174 28.5107 31.8152V31.837L28.5214 32.5543C28.5214 32.7065 28.5643 32.8043 28.6607 32.8478C28.6929 32.8587 28.7143 32.8696 28.7465 32.8804H28.7572C28.7786 32.8804 28.8108 32.8804 28.8537 32.8804C28.9394 32.8804 29.0251 32.8804 29.1216 32.8804H29.2074C29.2502 32.8696 29.3038 32.8696 29.3574 32.8696V32.8587H29.3788C29.411 32.8587 29.4432 32.8587 29.4753 32.8587V32.8478H29.4967C29.5182 32.8478 29.5503 32.8478 29.5718 32.837H29.6039C29.6254 32.837 29.6575 32.8261 29.6897 32.8261C29.7433 32.8152 29.7861 32.8043 29.8397 32.8043C29.8612 32.7935 29.8826 32.7935 29.8933 32.7935V32.7826H29.9148C29.9255 32.7826 29.9469 32.7826 29.9576 32.7717H29.9684C29.9898 32.7717 30.0112 32.7717 30.0219 32.7609H30.0327L30.0863 32.75C30.1398 32.7391 30.1934 32.7283 30.2363 32.7174V32.7065H30.247L30.2899 32.6957L30.3221 32.6848H30.3435L30.3757 32.6739H30.3864C30.3971 32.663 30.4185 32.663 30.4292 32.663L30.4614 32.6522V32.6413H30.4721C30.5043 32.6413 30.5257 32.6304 30.5579 32.6196C30.5793 32.6087 30.6007 32.6087 30.6329 32.5978L30.665 32.587L30.7079 32.5652C30.7294 32.5652 30.7508 32.5543 30.7722 32.5435L30.8044 32.5326H30.8151L30.8473 32.5217L30.8687 32.5109H30.8794L30.9116 32.5V32.4891C30.9759 32.4674 31.0295 32.4457 31.0938 32.413L31.1259 32.4022L31.1474 32.3913H31.1581C31.1688 32.3804 31.1902 32.3696 31.2117 32.3696L31.2331 32.3587V32.3478H31.2438L31.2545 32.337H31.2653L31.2867 32.3261H31.2974C31.3832 32.2826 31.4689 32.2391 31.5654 32.1848L31.5868 32.1739H31.5975L31.6083 32.163H31.619L31.6404 32.1522C31.6726 32.1304 31.694 32.1196 31.7262 32.0978L31.7476 32.087C31.7905 32.0543 31.8333 32.0326 31.8762 32.0109C31.8869 32 31.8976 31.9891 31.9191 31.9891V31.9783L31.9405 31.9674L31.9727 31.9457H31.9834L32.0155 31.9239V31.913L32.0584 31.8913L32.0906 31.8696H32.1013C32.1442 31.837 32.1978 31.8043 32.2406 31.7609C32.2621 31.75 32.2728 31.7391 32.2942 31.7283L32.3264 31.6957H32.3478V31.6848L32.38 31.663L32.3907 31.6522H32.4014L32.4336 31.6196H32.4443V31.6087C32.4657 31.5978 32.4764 31.587 32.4979 31.5761C32.5407 31.5435 32.5836 31.5109 32.6158 31.4674H32.6265L32.6372 31.4565C32.6586 31.4457 32.6801 31.4239 32.6908 31.4022H32.7015L32.7122 31.3913L32.723 31.3804C32.7444 31.3587 32.7765 31.337 32.798 31.3152L32.8087 31.3043L32.8194 31.2935H32.8301C32.873 31.25 32.9159 31.2065 32.9588 31.163L32.9695 31.1522L32.9802 31.1413H32.9909L33.0016 31.1304L33.0123 31.1196V31.1087L33.0231 31.0978L33.0338 31.087L33.0445 31.0761H33.0552L33.0659 31.0652L33.0767 31.0543L33.0874 31.0435V31.0326L33.0981 31.0217L33.1088 31.0109L33.1195 31H33.1303L33.141 30.9891L33.1517 30.9674C33.1946 30.9239 33.2374 30.8804 33.2803 30.837L33.291 30.8261V30.8152C33.3125 30.7935 33.3339 30.7717 33.3553 30.75V30.7391L33.3661 30.7283L33.3768 30.7174C33.3982 30.6957 33.4089 30.6739 33.4304 30.663V30.6522L33.4411 30.6413C33.4732 30.5978 33.5054 30.5543 33.5375 30.5109C33.559 30.5 33.5697 30.4783 33.5804 30.4674V30.4565L33.5911 30.4457L33.6126 30.413H33.6233V30.4022L33.6554 30.3587L33.6876 30.3152V30.3043L33.7198 30.2717L33.7519 30.2174C33.7733 30.1957 33.7841 30.163 33.8055 30.1413C33.8162 30.1304 33.8269 30.1196 33.8269 30.1087L33.8377 30.087V30.0761H33.8484L33.8698 30.0435C33.8805 30.0326 33.8805 30.0109 33.8913 30L33.902 29.9783H33.9127L33.9341 29.9457V29.9348L33.9556 29.9022L33.9663 29.8804V29.8696C34.0092 29.8152 34.0413 29.7609 34.0735 29.6957L34.0842 29.6739L34.0949 29.6522V29.6413L34.1056 29.6196L34.1163 29.5978V29.587H34.1271V29.5761V29.5652H34.1378L34.1485 29.5435L34.1592 29.5217V29.5109L34.1699 29.5V29.4891C34.1914 29.4565 34.2021 29.4239 34.2235 29.3913C34.2342 29.3587 34.245 29.3261 34.2557 29.3043V29.2935L34.2664 29.2717L34.2878 29.2391L34.2985 29.2174V29.2065L34.3093 29.1848V29.1739L34.32 29.1522V29.1413C34.3307 29.1304 34.3414 29.1087 34.3414 29.087V29.0761H34.3521C34.3521 29.0652 34.3629 29.0435 34.3736 29.0217C34.3736 29.0109 34.3736 29 34.3843 28.9891C34.395 28.9457 34.4164 28.8913 34.4379 28.837L34.4486 28.8043V28.7826L34.4593 28.7609V28.75L34.47 28.7283V28.7065H34.4808V28.6848V28.6739H34.4915L34.5022 28.6413V28.6304L34.5129 28.6087V28.5978L34.5236 28.5652V28.5543L34.5344 28.5217C34.5558 28.4565 34.5665 28.4022 34.5879 28.3478V28.337L34.5987 28.2935L34.6094 28.25V28.2391L34.6201 28.2065V28.1848H34.6308V28.1522V28.1304H34.6415L34.6523 28.1087V28.087L34.663 28.0543V28.0326L34.6737 28V27.9783L34.6844 27.9457V27.9348L34.6951 27.8913V27.8804H34.7058L34.7166 27.8261C34.7166 27.7935 34.7273 27.75 34.738 27.7065L34.7487 27.6522V27.6413L34.7594 27.587V27.5652H34.7701V27.5109V27.5H34.7809L34.7916 27.4457V27.4348L34.8023 27.3696V27.3587L34.813 27.2935C34.8237 27.2391 34.8345 27.1848 34.8345 27.1413V27.1304L34.8452 27.0543V27.0326H34.8559L34.8666 26.9565V26.9348L34.8773 26.8587V26.8478C34.8773 26.8152 34.8881 26.7826 34.8881 26.7609V26.7391C34.8988 26.6739 34.9095 26.5978 34.9095 26.5217V26.5109C34.9202 26.4783 34.9202 26.4348 34.9309 26.3913V26.3696C34.9309 26.3261 34.9309 26.2935 34.9416 26.25V26.2174C34.9416 26.1739 34.9524 26.1304 34.9524 26.087V26.0761C34.9524 26.0109 34.9631 25.9457 34.9631 25.8913V25.8587C34.9738 25.7935 34.9738 25.7174 34.9738 25.6522V25.6087C34.9845 25.5109 34.9845 25.413 34.9845 25.3152V25.2717H34.9952C34.9952 24.913 35.006 24.5435 34.9952 24.1848V24.1848Z" fill="url(#paint0_linear_147_132)"/>
<defs>
<linearGradient id="paint0_linear_147_132" x1="2.1651" y1="16.5" x2="35.2525" y2="16.5" gradientUnits="userSpaceOnUse">
<stop stop-color="#343A79"/>
<stop offset="0.0313725" stop-color="#343A79"/>
<stop offset="0.858824" stop-color="#CB2668"/>
<stop offset="1" stop-color="#CB2668"/>
</linearGradient>
</defs>
</svg>
