<svg width="404" height="400" viewBox="0 0 404 400" fill="none" xmlns="http://www.w3.org/2000/svg">
<path d="M134.415 340.647C110.725 329.6 90.2086 312.748 74.7704 291.654C59.3323 270.561 49.4724 245.909 46.1058 219.988C42.7391 194.066 45.9747 167.714 55.5125 143.376C65.0502 119.039 80.5809 97.505 100.663 80.7728L157.725 149.26C149.179 156.381 142.569 165.545 138.51 175.903C134.451 186.26 133.074 197.475 134.507 208.506C135.94 219.538 140.136 230.029 146.706 239.006C153.276 247.982 162.007 255.154 172.089 259.856L134.415 340.647Z" fill="#363D4F"/>
<path d="M350.85 236.33C345.469 258.675 335.19 279.545 320.758 297.433C306.325 315.32 288.099 329.778 267.397 339.762C246.694 349.745 224.032 355.004 201.049 355.16C178.065 355.315 155.335 350.362 134.499 340.66L172.125 259.861C180.992 263.99 190.665 266.098 200.446 266.032C210.227 265.966 219.872 263.727 228.682 259.479C237.493 255.23 245.249 249.077 251.391 241.465C257.533 233.852 261.907 224.97 264.197 215.461L350.85 236.33Z" fill="#E1E1E1"/>
<g filter="url(#filter0_d_204_692)">
<path d="M90.6461 69.6766C115.376 48.9254 145.5 35.6391 177.5 31.3695C209.499 27.0998 242.053 32.0231 271.359 45.5643L230.368 134.276C217.897 128.513 204.043 126.418 190.425 128.235C176.806 130.052 163.987 135.707 153.462 144.538L90.6461 69.6766Z" fill="#F28400"/>
</g>
<g filter="url(#filter1_d_204_692)">
<path d="M277.432 30.09C320.648 49.7847 354.736 85.2068 372.757 129.147L273.521 169.847C265.851 151.147 251.345 136.072 232.953 127.691L277.432 30.09Z" fill="#4F23FF"/>
</g>
<g filter="url(#filter2_d_204_692)">
<path d="M384.776 123.463C400.939 162.484 404.334 205.62 394.474 246.689L282.763 219.87C286.959 202.392 285.514 184.034 278.635 167.428L384.776 123.463Z" fill="#242935"/>
</g>
<defs>
<filter id="filter0_d_204_692" x="87.3266" y="29.875" width="187.352" height="121.302" filterUnits="userSpaceOnUse" color-interpolation-filters="sRGB">
<feFlood flood-opacity="0" result="BackgroundImageFix"/>
<feColorMatrix in="SourceAlpha" type="matrix" values="0 0 0 0 0 0 0 0 0 0 0 0 0 0 0 0 0 0 127 0" result="hardAlpha"/>
<feOffset dy="3.3195"/>
<feGaussianBlur stdDeviation="1.65975"/>
<feComposite in2="hardAlpha" operator="out"/>
<feColorMatrix type="matrix" values="0 0 0 0 0 0 0 0 0 0 0 0 0 0 0 0 0 0 0.25 0"/>
<feBlend mode="normal" in2="BackgroundImageFix" result="effect1_dropShadow_204_692"/>
<feBlend mode="normal" in="SourceGraphic" in2="effect1_dropShadow_204_692" result="shape"/>
</filter>
<filter id="filter1_d_204_692" x="229.634" y="30.0898" width="146.443" height="146.396" filterUnits="userSpaceOnUse" color-interpolation-filters="sRGB">
<feFlood flood-opacity="0" result="BackgroundImageFix"/>
<feColorMatrix in="SourceAlpha" type="matrix" values="0 0 0 0 0 0 0 0 0 0 0 0 0 0 0 0 0 0 127 0" result="hardAlpha"/>
<feOffset dy="3.3195"/>
<feGaussianBlur stdDeviation="1.65975"/>
<feComposite in2="hardAlpha" operator="out"/>
<feColorMatrix type="matrix" values="0 0 0 0 0 0 0 0 0 0 0 0 0 0 0 0 0 0 0.25 0"/>
<feBlend mode="normal" in2="BackgroundImageFix" result="effect1_dropShadow_204_692"/>
<feBlend mode="normal" in="SourceGraphic" in2="effect1_dropShadow_204_692" result="shape"/>
</filter>
<filter id="filter2_d_204_692" x="275.316" y="123.463" width="128.004" height="129.865" filterUnits="userSpaceOnUse" color-interpolation-filters="sRGB">
<feFlood flood-opacity="0" result="BackgroundImageFix"/>
<feColorMatrix in="SourceAlpha" type="matrix" values="0 0 0 0 0 0 0 0 0 0 0 0 0 0 0 0 0 0 127 0" result="hardAlpha"/>
<feOffset dy="3.3195"/>
<feGaussianBlur stdDeviation="1.65975"/>
<feComposite in2="hardAlpha" operator="out"/>
<feColorMatrix type="matrix" values="0 0 0 0 0 0 0 0 0 0 0 0 0 0 0 0 0 0 0.25 0"/>
<feBlend mode="normal" in2="BackgroundImageFix" result="effect1_dropShadow_204_692"/>
<feBlend mode="normal" in="SourceGraphic" in2="effect1_dropShadow_204_692" result="shape"/>
</filter>
</defs>
</svg>
