<svg width="16" height="16" viewBox="0 0 16 16" fill="none" xmlns="http://www.w3.org/2000/svg">
<g clip-path="url(#clip0_271_6)">
<path d="M15.7983 14.8538L11.2077 10.2599C12.1127 9.1745 12.657 7.78747 12.657 6.27256C12.657 2.81647 9.82068 0.00634766 6.3318 0.00634766C2.84291 0.00634766 0 2.81975 0 6.27584C0 9.73193 2.83636 12.5421 6.32524 12.5421C7.80736 12.5421 9.17143 12.0338 10.2535 11.1845L14.8605 15.7916C15.1294 16.0605 15.5295 16.0605 15.7983 15.7916C16.0672 15.5227 16.0672 15.1226 15.7983 14.8538ZM1.3444 6.27584C1.3444 3.56081 3.58069 1.35403 6.32524 1.35403C9.06978 1.35403 11.3061 3.56081 11.3061 6.27584C11.3061 8.99087 9.06978 11.1977 6.32524 11.1977C3.58069 11.1977 1.3444 8.9876 1.3444 6.27584Z" fill="white"/>
</g>
<defs>
<clipPath id="clip0_271_6">
<rect width="16" height="16" fill="white"/>
</clipPath>
</defs>
</svg>
