<svg width="22" height="22" viewBox="0 0 22 22" fill="none" xmlns="http://www.w3.org/2000/svg">
<path d="M20.9994 15.9725V18.9824C21.0005 19.2619 20.9432 19.5385 20.831 19.7945C20.7188 20.0505 20.5542 20.2803 20.3478 20.4692C20.1415 20.6581 19.8978 20.802 19.6325 20.8915C19.3672 20.981 19.0861 21.0142 18.8072 20.9891C15.7128 20.6536 12.7404 19.5986 10.1289 17.9089C7.69921 16.3684 5.63926 14.3131 4.09534 11.8889C2.39586 9.27142 1.33824 6.29132 1.00816 3.19004C0.983033 2.91259 1.01608 2.63295 1.1052 2.36894C1.19432 2.10493 1.33757 1.86232 1.52581 1.65657C1.71405 1.45082 1.94317 1.28643 2.19858 1.17387C2.45398 1.06131 2.73008 1.00305 3.0093 1.00278H6.02608C6.5141 0.99799 6.98722 1.17042 7.35725 1.48793C7.72727 1.80543 7.96896 2.24636 8.03727 2.72851C8.1646 3.69177 8.40074 4.63757 8.74118 5.54786C8.87648 5.90698 8.90576 6.29726 8.82556 6.67247C8.74536 7.04768 8.55903 7.39209 8.28867 7.66489L7.01156 8.93911C8.44308 11.451 10.5276 13.5308 13.0451 14.9591L14.3222 13.6849C14.5956 13.4151 14.9408 13.2292 15.3169 13.1492C15.6929 13.0692 16.0841 13.0984 16.444 13.2334C17.3564 13.573 18.3043 13.8086 19.2698 13.9357C19.7582 14.0045 20.2044 14.2499 20.5233 14.6255C20.8422 15.001 21.0116 15.4804 20.9994 15.9725Z" stroke="#9CBFF2" stroke-width="2" stroke-linecap="round" stroke-linejoin="round"/>
</svg>
