<svg width="147" height="21" viewBox="0 0 147 21" fill="none" xmlns="http://www.w3.org/2000/svg">
<g clip-path="url(#clip0_97_20)">
<path d="M11.9888 16.1036C11.9888 18.6373 10.0959 20.6727 6.35319 20.6727H0V6.20117H10.2657V9.55197H4.03493V11.5346H6.35319C9.94982 11.5346 11.9888 13.5826 11.9888 16.1036ZM8.30835 16.1036C8.30835 15.4428 7.76262 14.8854 6.70985 14.8854H4.03923V17.324H6.70985C7.76262 17.324 8.30835 16.7856 8.30835 16.1036Z" fill="#F28400"/>
<path d="M26.9877 6.20337C26.9877 6.20337 24.6243 11.4945 23.6854 13.6038C22.9076 15.3605 20.8665 20.6517 17.0808 20.9832C15.9611 21.0692 14.8494 20.7392 13.9654 20.0584L15.1257 17.3241C16.6597 18.1497 17.5857 17.7168 18.5633 16.0003L13.2521 6.20337H17.648L20.411 12.3412L22.5982 6.20337H26.9877Z" fill="#F28400"/>
<path d="M45.8366 6.20337V20.6728H41.8189V12.8374L38.2438 17.2418H36.4755L32.9004 12.8374V20.6728H28.8826V6.20337H32.4578L37.3586 12.5904L42.2615 6.20337H45.8366Z" fill="#F28400"/>
<path d="M60.2038 17.3241V20.6728H49.2034V6.20337H59.8472V9.54994H53.2211V11.7627H59.194V15.1114H53.2211V17.3241H60.2038Z" fill="#F28400"/>
<path d="M75.1598 11.3299C75.1598 14.0979 72.9726 16.4753 69.4167 16.4753H67.3993V20.6728H63.36V6.20337H69.4167C72.9726 6.20337 75.1598 8.55969 75.1598 11.3299ZM71.5202 11.3299C71.5202 10.4198 70.9959 9.55205 69.2706 9.55205H67.3993V13.1267H69.2706C70.9895 13.1267 71.5202 12.2378 71.5202 11.3299Z" fill="#F28400"/>
<path d="M77.4758 20.6728V6.20337H81.5129V13.8931L86.6243 6.20337H90.2015V20.6728H86.1623V12.9831L81.051 20.6728H77.4758Z" fill="#F28400"/>
<path d="M106.545 6.20337V20.6728H102.528V15.1114H97.5839V20.6728H93.5683V6.20337H97.5839V11.7627H102.528V6.20337H106.545Z" fill="#F28400"/>
<path d="M120.156 9.54994H113.951V20.6728H109.912V6.20337H120.156V9.54994Z" fill="#F28400"/>
<path d="M146.781 8.13516C146.057 6.07232 143.65 4.81393 140.421 4.48877V7.76566C141.356 8.20484 142.024 8.84459 142.308 9.66593C142.8 11.0932 142.033 12.7781 140.421 14.2815C139.091 15.5208 137.188 16.6399 134.942 17.3894C131.537 18.5254 128.233 18.5211 126.198 17.5668C125.263 17.1297 124.597 16.49 124.312 15.6665C123.82 14.2392 124.587 12.5543 126.198 11.051V7.87123C121.506 10.5802 118.813 14.3047 119.838 17.2501C120.562 19.315 122.969 20.5713 126.198 20.8965C128.955 21.1752 132.311 20.7761 135.735 19.617C137.364 19.0669 138.934 18.3596 140.421 17.5056C145.114 14.7987 147.812 11.0721 146.781 8.12671" fill="#F28400"/>
<path d="M138.277 0H128.342C127.772 0 127.226 0.222451 126.823 0.618415C126.42 1.01438 126.194 1.55142 126.194 2.1114V17.5669C128.228 18.5212 131.533 18.5254 134.938 17.3895C137.183 16.64 139.087 15.523 140.417 14.2815V2.1114C140.417 1.55142 140.191 1.01438 139.788 0.618415C139.385 0.222451 138.838 0 138.268 0" fill="#4F23FF"/>
</g>
<defs>
<clipPath id="clip0_97_20">
<rect width="147" height="21" fill="white"/>
</clipPath>
</defs>
</svg>
