<svg width="16" height="14" viewBox="0 0 16 14" fill="none" xmlns="http://www.w3.org/2000/svg">
<path d="M15.2064 11.1273C15.2371 11.3413 15.1655 11.5273 14.9919 11.6855L12.954 13.5275C12.862 13.6206 12.742 13.6997 12.5939 13.7648C12.4458 13.8299 12.3003 13.8718 12.1573 13.8904C12.1471 13.8904 12.1164 13.8928 12.0653 13.8974C12.0143 13.902 11.9479 13.9044 11.8661 13.9044C11.672 13.9044 11.3579 13.8742 10.9237 13.8137C10.4896 13.7532 9.95842 13.6043 9.33024 13.3671C8.70191 13.1299 7.98943 12.774 7.19268 12.2995C6.39592 11.8251 5.54804 11.1738 4.64912 10.3458C3.93406 9.70381 3.34158 9.08977 2.87169 8.50366C2.40179 7.91751 2.02383 7.37558 1.73781 6.87783C1.45176 6.38009 1.23724 5.92886 1.09423 5.52416C0.951221 5.11945 0.854178 4.77056 0.803102 4.4775C0.752027 4.18444 0.731596 3.95417 0.741812 3.78671C0.752027 3.61924 0.757134 3.52621 0.757134 3.5076C0.777564 3.37735 0.823532 3.24477 0.895038 3.10987C0.966544 2.97497 1.05337 2.86565 1.15552 2.78192L3.19344 0.925845C3.33645 0.795594 3.49989 0.730469 3.68376 0.730469C3.81656 0.730469 3.93403 0.765357 4.03618 0.835134C4.13834 0.904912 4.22516 0.99097 4.29667 1.09331L5.93619 3.92626C6.02813 4.07512 6.05367 4.23793 6.01281 4.4147C5.97195 4.59147 5.88512 4.74033 5.75232 4.86127L5.00151 5.54509C4.98108 5.5637 4.9632 5.59393 4.94788 5.6358C4.93256 5.67767 4.9249 5.71255 4.9249 5.74047C4.96576 5.93584 5.05769 6.15913 5.20071 6.41033C5.32329 6.63361 5.51227 6.90574 5.76764 7.22672C6.02302 7.54769 6.38566 7.91749 6.85555 8.33615C7.31523 8.76416 7.72384 9.09672 8.08137 9.33401C8.43882 9.57116 8.73771 9.74567 8.97777 9.85732C9.21782 9.96896 9.4017 10.0364 9.52936 10.0596L9.72084 10.0945C9.74127 10.0945 9.77455 10.0875 9.82046 10.0736C9.86643 10.0596 9.89963 10.0433 9.92009 10.0247L10.7935 9.2153C10.9774 9.06646 11.1918 8.99203 11.437 8.99203C11.6107 8.99203 11.7486 9.01992 11.8507 9.07577H11.866L14.8233 10.6667C15.0379 10.7877 15.1655 10.9412 15.2064 11.1273Z" fill="#24C016"/>
</svg>
