<svg width="24" height="24" viewBox="0 0 24 24" fill="none" xmlns="http://www.w3.org/2000/svg">
<circle cx="12" cy="12" r="12" fill="#010B1C"/>
<path d="M19.2623 10.5073C18.8821 9.11083 17.6185 8.25894 15.9227 8.03882V10.2572C16.4135 10.5545 16.7643 10.9876 16.9133 11.5436C17.1716 12.5098 16.7689 13.6504 15.9227 14.6681C15.2243 15.5072 14.2246 16.2647 13.0456 16.7721C11.2572 17.5411 9.52194 17.5383 8.45347 16.8922C7.96267 16.5963 7.61291 16.1632 7.46285 15.6058C7.20447 14.6396 7.60726 13.4989 8.45347 12.4812V10.3286C5.98931 12.1625 4.57559 14.6839 5.11378 16.6778C5.494 18.0757 6.75767 18.9262 8.45347 19.1463C9.90105 19.335 11.6634 19.0648 13.4619 18.2801C14.3174 17.9077 15.1416 17.4289 15.9227 16.8508C18.3868 15.0183 19.8039 12.4955 19.2623 10.5016" fill="#F28400"/>
<path d="M14.7964 5H9.5792C9.27997 5 8.99299 5.15059 8.78139 5.41865C8.5698 5.6867 8.45093 6.05026 8.45093 6.42935V16.8922C9.5194 17.5383 11.2547 17.5411 13.043 16.7721C14.2221 16.2647 15.2217 15.5086 15.9201 14.6681V6.42935C15.9201 6.05026 15.8012 5.6867 15.5897 5.41865C15.3781 5.15059 15.0911 5 14.7918 5" fill="#4F23FF"/>
</svg>
