<svg width="24" height="24" viewBox="0 0 24 24" fill="none" xmlns="http://www.w3.org/2000/svg">
<circle cx="12" cy="12" r="12" fill="#010B1C"/>
<path d="M16.7511 9.48124C16.6273 9.8973 16.4605 10.2595 16.2514 10.5883L16.2601 10.5736C16.0548 10.9395 15.8095 11.3622 15.5244 11.8419C15.2799 12.2205 15.1505 12.4165 15.1361 12.4299C15.0728 12.5147 15.0288 12.6186 15.0137 12.7328L15.0133 12.7362C15.0256 12.8401 15.0706 12.9308 15.1361 12.9984L15.3195 13.217C16.3005 14.2948 16.8522 15.0377 16.9748 15.4457C16.9908 15.4908 17 15.5428 17 15.5972C17 15.6922 16.9716 15.78 16.9234 15.852L16.9244 15.8505C16.8437 15.9392 16.7309 15.9941 16.6062 15.9941C16.5925 15.9941 16.5783 15.9936 16.565 15.9922H16.5668H15.3607C15.3603 15.9922 15.3594 15.9922 15.3584 15.9922C15.2039 15.9922 15.0618 15.9343 14.9504 15.8383L14.9518 15.8393C14.7895 15.6967 14.6451 15.5423 14.5159 15.3747L14.5118 15.3688C14.3006 15.1136 14.1132 14.8988 13.9497 14.7244C13.4052 14.1709 13.0033 13.8942 12.7441 13.8942C12.7345 13.8932 12.7235 13.8927 12.712 13.8927C12.6364 13.8927 12.5658 13.9177 12.5076 13.9604L12.509 13.9594C12.4613 14.0231 12.4324 14.1054 12.4324 14.1941C12.4324 14.2118 12.4333 14.2284 12.4356 14.2456V14.2436C12.4232 14.3975 12.4159 14.5764 12.4159 14.7572C12.4159 14.8155 12.4168 14.8734 12.4182 14.9312V14.9229V15.4908C12.4228 15.5139 12.4255 15.5403 12.4255 15.5673C12.4255 15.6859 12.3751 15.7917 12.2963 15.8618L12.2958 15.8623C12.1184 15.949 11.9112 16 11.6925 16C11.6458 16 11.5999 15.9975 11.5546 15.9931L11.5605 15.9936C10.839 15.9789 10.1697 15.753 9.60081 15.3722L9.61685 15.382C8.9242 14.9322 8.35027 14.3465 7.91294 13.6546L7.90057 13.634C7.48525 13.0449 7.09789 12.3794 6.76784 11.6777L6.73575 11.6022C6.54276 11.2092 6.34289 10.726 6.17053 10.2291L6.14302 10.1384C6.07289 9.91494 6.022 9.65521 6.00092 9.38617L6 9.37391C6 9.12627 6.1363 9.00245 6.4089 9.00245H7.61452C7.62552 9.00147 7.63836 9.00098 7.65165 9.00098C7.76534 9.00098 7.87031 9.04264 7.95328 9.11271L7.95237 9.11173C8.04405 9.21906 8.11189 9.35088 8.14536 9.4979L8.14673 9.50378C8.3686 10.1737 8.60377 10.7363 8.87423 11.2753L8.84352 11.2082C9.06447 11.6836 9.3088 12.0928 9.58751 12.4706L9.57697 12.4554C9.82146 12.7762 10.0122 12.9366 10.1491 12.9366C10.1532 12.9371 10.1582 12.9371 10.1637 12.9371C10.2316 12.9371 10.2907 12.8979 10.3228 12.8391L10.3233 12.8381C10.3572 12.745 10.3769 12.6367 10.3769 12.524C10.3769 12.5 10.376 12.476 10.3741 12.4525V12.4554V10.5545C10.3645 10.3305 10.3132 10.1213 10.2275 9.93356L10.2311 9.94287C10.1743 9.8135 10.106 9.70176 10.0248 9.60228L10.0262 9.60424C9.95103 9.52387 9.89969 9.41851 9.88365 9.3009L9.88319 9.29796C9.88319 9.21465 9.91894 9.13967 9.97487 9.09066L9.97533 9.09017C10.0308 9.03577 10.1051 9.00294 10.1862 9.00294H10.1899H12.0904C12.1005 9.00147 12.112 9.00098 12.1239 9.00098C12.2133 9.00098 12.2935 9.04411 12.3467 9.11173L12.3471 9.11222C12.3944 9.20435 12.4223 9.31462 12.4223 9.43125C12.4223 9.44987 12.4214 9.46801 12.42 9.48614V9.48369V12.0188C12.4191 12.0305 12.4187 12.0442 12.4187 12.058C12.4187 12.1481 12.442 12.2329 12.4824 12.305L12.4815 12.303C12.5149 12.3559 12.5708 12.3902 12.6341 12.3902H12.6346C12.7152 12.3843 12.7886 12.3559 12.8505 12.3108L12.8491 12.3118C12.9738 12.2202 13.0811 12.1158 13.1741 11.9977L13.1759 11.9952C13.4542 11.6591 13.7109 11.2876 13.9346 10.8926L13.9525 10.8583C14.1102 10.579 14.2807 10.2349 14.4352 9.88162L14.4636 9.80958L14.6681 9.37244C14.7391 9.15388 14.9298 9 15.154 9C15.1627 9 15.1714 9 15.1801 9.00049H15.1787H16.3848C16.7106 9.00049 16.8328 9.16074 16.7515 9.48124H16.7511Z" fill="white"/>
</svg>
